<svg width="150" height="150" xmlns="http://www.w3.org/2000/svg">
 <g id="Layer_1">
  <title>Layer 1</title>
  <g>
   <g>
    <path fill="#FFFFFF" d="m77.89999,109.75c-0.2,-1.2 0.2,-2.4 -0.2,-3.6c-0.3,-1 -1,-1.1 -1.5,-1.9c-1.3,-2.1 -2.5,-4.9 -2.7,-7.5c-0.1,-2.3 -1,-4.5 -1.1,-6.8c-0.1,-1.1 0.1,-2.3 0,-3.4c0,-0.5 -0.1,-1 -0.2,-1.6c0,-0.1 -0.1,-0.7 -0.2,-1l0.3,-0.7c-0.1,-0.2 2.5,-0.2 3.3,-0.2c1.3,0 2.6,0.1 3.9,0.1c2.7,0.1 5.2,0.1 7.8,-0.3c5.9,-0.9 8.6,-3.3 9.9,-4.3c5.4,-3.9 7.8,-10.2 7.8,-10.2c0.9,-2 0.9,-5.5 2.8,-7.1c2.2,-1.9 6,-1.7 8.6,-2.9c1.5,-0.7 2.6,-1 4.1,-0.7c1.1,0.2 3.2,1.6 3.7,-0.3c-0.4,-0.2 -0.5,-0.7 -0.7,-0.9c2.1,-0.2 0,-5.1 -0.8,-6.1c-1.3,-1.5 -3.5,-2.2 -5.8,-2.8c-2.7,-0.7 -5.2,-1.6 -7.8,-1.1c-4.5,0.9 -4.2,-1.7 -6.8,-1.7c-3.2,0 -8.8,0.2 -9.8,3.2c-0.5,1.4 -0.9,1.5 -1.7,2.6c-0.7,0.9 0.1,1.8 -0.2,2.9c-0.4,1.1 -0.9,5 -1.4,6.4c-0.9,2.3 -2,5.2 -4,5.2c-2.8,0.3 -5,0.4 -7.3,-0.4c-1.4,-0.5 -3.7,-1.3 -4.8,-1.7c-5.2,-2.2 -6.1,-4.6 -6.1,-4.6c-0.6,-0.9 -2,-2.4 -2.6,-4.4c-0.6,-2.1 -1.6,-3.9 -2,-5.1c-0.4,-1.2 -1.5,-3 -2.3,-5c-1,-2.6 -2.5,-4.5 -3.6,-5.4c-1.6,-1.4 -3.1,-3.7 -6.4,-3c-0.6,0.1 -2.7,0.2 -4.4,1.6c-1.1,0.9 -1.5,2.9 -2.5,4.5c-0.6,0.9 -1.6,3.6 -2.6,5.9c-0.7,1.6 -1,2.7 -1.7,3.3c-0.6,0.4 -1.3,1 -2.1,0.7c-0.5,-0.2 -1.1,-0.5 -1.6,-1c-0.8,-0.6 -2.5,-3.6 -3.6,-5.7c-0.9,-1.9 -2.9,-4.7 -4,-6.3c-1.6,-2.2 -2.6,-2.8 -5,-2.8c-5.2,0 -5.6,2.9 -7.9,7.2c-1,1.9 -1.4,4.8 -3.4,7.1c-1.2,1.3 -4.8,6.8 -7.4,7.7l0,0l0,0l0,38.8l0,0.1l0,-0.2c0.2,-0.5 0.3,-1 0.5,-1.4c1,-2.1 3.3,-4.1 4.6,-6.2c0.7,-1.2 1.5,-2.3 1.9,-3.6c0.4,-1.1 0.6,-2.7 1.2,-3.6c0.7,-1.1 1.8,-1.5 2.9,-1.7c1.8,-0.3 3.3,2.5 5.5,3.6c1,0.4 5.4,2 6.7,2.3c2.2,0.5 4.6,1 6.8,1.4c1.2,0.2 2.3,0.4 3.6,0.5c1.1,0.1 5.2,0.2 5.5,0.5c-2.1,1.1 -3.3,4.1 -4.1,6.2c-0.8,2.2 -1.4,4.7 -2.4,6.8c-1.1,2.4 -3.4,3.4 -3.1,6.2c0.1,1.1 0.3,2.3 0.1,3.5c-0.2,1.3 -0.7,2.3 -1.1,3.5c-0.5,1.6 -1.1,6.9 -1.8,8.5l4.6,-0.6l0,0c0.5,-1.2 1,-6.2 1.1,-6.7c0.9,-2.5 2,-4.6 3.7,-6.5c1.7,-1.9 1.6,-4.3 2.6,-6.6c1.1,-2.4 2.5,-4.3 3.9,-6.6c2.5,-4.1 4.1,-9.2 9.4,-10.3c0.6,-0.1 3.8,2.2 5.2,3.6c1.6,1.6 3.4,3.4 4.5,5.6c2.1,4.2 3.8,10.3 4.5,13.6c0.4,1.9 0.7,2 2,3.6c0.6,0.7 1.8,2.9 2.2,3.7c0.4,0.9 1,2.9 1.5,4c0.3,0.6 1.1,2.5 1.6,4.2l4.3,-0.1c0,0 0.1,0 0.1,0c0,0 0,0 0,0c0,0 0,-0.1 0,-0.1c-2,-4.2 -3.3,-9.1 -4,-13.9z" class="st0"/>
    <path fill="#494545" d="m75.09999,84.85l0,0c0,-0.2 0,-0.2 0,0z" class="st1"/>
    <g>
     <g>
      <path fill="url(#svg_5)" d="m75.09999,84.85l0,0c0,-0.2 0,-0.2 0,0z" class="st2"/>
      <g>
       <path fill="url(#svg_4)" d="m76.09999,119.85c-0.5,-1 -1.1,-3.1 -1.5,-4c-0.4,-0.8 -1.6,-3 -2.2,-3.7c-1.3,-1.5 -1.6,-1.6 -2,-3.6c-0.7,-3.4 -2.4,-9.4 -4.5,-13.6c-1.1,-2.2 -2.9,-4 -4.5,-5.6c-1.4,-1.4 -4.6,-3.7 -5.2,-3.6c-5.3,1 -6.9,6.2 -9.4,10.3c-1.4,2.3 -2.8,4.2 -3.9,6.6c-1,2.2 -0.9,4.7 -2.6,6.6c-1.7,1.9 -2.9,4 -3.7,6.5c-0.2,0.5 -0.6,5.5 -1.1,6.7c0,0 0,0 0,0l7.8,-0.5c7.3,0.5 5.2,3.3 16.5,2.7l17.9,-0.6l0,0c-0.5,-1.7 -1.3,-3.6 -1.6,-4.2z" class="st3"/>
      </g>
      <g>
       <g>
        <path fill="url(#svg_3)" d="m128.09999,0.85l-106.2,0c-9.9,0 -17.9,8 -17.9,17.9l0,39l0,0c2.6,-0.9 6.2,-6.4 7.4,-7.7c2,-2.3 2.4,-5.3 3.4,-7.1c2.3,-4.2 2.7,-7.2 7.9,-7.2c2.4,0 3.4,0.6 5,2.8c1.1,1.5 3.1,4.4 4,6.3c1.1,2.2 2.8,5.1 3.6,5.7c0.6,0.4 1.1,0.8 1.6,1c0.8,0.3 1.5,-0.3 2.1,-0.7c0.7,-0.6 1,-1.7 1.7,-3.3c1,-2.3 2,-4.9 2.6,-5.9c1,-1.6 1.4,-3.6 2.5,-4.5c1.6,-1.4 3.8,-1.5 4.4,-1.6c3.3,-0.7 4.8,1.6 6.4,3c1.1,1 2.5,2.9 3.6,5.4c0.8,2 1.8,3.9 2.3,5c0.4,1.1 1.4,2.9 2,5.1c0.6,1.9 2,3.4 2.6,4.4c0,0 0.9,2.4 6.1,4.6c1.1,0.5 3.4,1.3 4.8,1.7c2.3,0.8 4.5,0.7 7.3,0.4c2,0 3.1,-2.9 4,-5.2c0.5,-1.4 1.1,-5.3 1.4,-6.4c0.3,-1.1 -0.5,-1.9 0.2,-2.9c0.8,-1.1 1.3,-1.2 1.7,-2.6c1,-3.1 6.6,-3.2 9.8,-3.2c2.7,0 2.3,2.6 6.8,1.7c2.6,-0.5 5.1,0.3 7.8,1.1c2.3,0.6 4.5,1.3 5.8,2.8c0.8,1 2.9,5.9 0.8,6.1c0.2,0.2 0.4,0.7 0.7,0.9c-0.5,1.9 -2.5,0.5 -3.7,0.3c-1.5,-0.3 -2.6,0 -4.1,0.7c-2.6,1.1 -6.3,1 -8.6,2.9c-1.9,1.6 -1.9,5.1 -2.8,7.1c0,0 -2.5,6.3 -7.8,10.2c-1.4,1 -4.1,3.4 -9.9,4.3c-2.6,0.4 -5.1,0.4 -7.8,0.3c-1.3,-0.1 -2.6,-0.1 -3.9,-0.1c-0.8,0 -3.4,-0.1 -3.3,0.2l-0.3,0.7c0,0.2 0.1,0.8 0.2,1c0.1,0.6 0.1,1.1 0.2,1.6c0,1.1 -0.1,2.3 0,3.4c0.1,2.3 1,4.4 1.1,6.8c0.1,2.6 1.4,5.4 2.7,7.5c0.5,0.8 1.2,0.9 1.5,1.9c0.4,1.1 0,2.4 0.2,3.6c0.7,4.7 2.1,9.7 4.2,14c0,0 0,0.1 0,0.1c0,0 0,0 0,0c2.6,-0.4 5.3,-1.4 8.7,-1.9c6.3,-0.9 15,-0.5 20.6,-1c14.2,-1.3 21.9,5.8 34.6,2.9l0,-105.2c-0.1,-9.9 -8.1,-17.9 -18,-17.9zm-53,84c0,-0.2 0,-0.2 0,0l0,0z" class="st4"/>
       </g>
      </g>
      <g>
       <path fill="url(#svg_2)" d="m36.79999,101.25c1,-2.2 1.6,-4.6 2.4,-6.8c0.8,-2.1 2,-5.1 4.1,-6.2c-0.3,-0.3 -4.4,-0.4 -5.5,-0.5c-1.2,-0.1 -2.4,-0.3 -3.6,-0.5c-2.2,-0.4 -4.7,-0.9 -6.8,-1.4c-1.3,-0.3 -5.8,-1.9 -6.7,-2.3c-2.3,-1 -3.8,-3.9 -5.5,-3.6c-1.1,0.2 -2.2,0.6 -2.9,1.7c-0.6,0.9 -0.8,2.5 -1.2,3.6c-0.5,1.2 -1.3,2.4 -1.9,3.6c-1.4,2.1 -3.7,4 -4.7,6.1c-0.2,0.5 -0.3,1 -0.5,1.5l0,0.2l0,7.9l0,14l0,2c1.2,0.2 2.4,0.4 3.7,0.8c10,2.7 12.4,2.9 22.2,1.8l0.9,-0.1l0,0c0.7,-1.6 1.3,-6.9 1.8,-8.5c0.4,-1.3 0.9,-2.3 1.1,-3.5c0.2,-1.2 0,-2.4 -0.1,-3.5c-0.2,-2.9 2.1,-3.9 3.2,-6.3z" class="st5"/>
      </g>
     </g>
    </g>
   </g>
   <text x="3.99999" y="19.95" font-size="12px" font-family="'MyriadPro-Regular'" class="st6 st7" transform="matrix(1 0 0 1 8.0118 124.381)"/>
   <path fill="#494545" d="m40.09999,148.85c-1.4,0 -2.7,-0.2 -3.8,-0.7c-1.2,-0.5 -2.1,-1.2 -3,-2.1c-0.8,-0.9 -1.5,-2.1 -1.9,-3.4c-0.5,-1.3 -0.7,-2.9 -0.7,-4.5c0,-1.7 0.2,-3.2 0.7,-4.5c0.5,-1.3 1.1,-2.4 1.9,-3.3c0.8,-0.9 1.8,-1.6 3,-2.1c1.2,-0.5 2.4,-0.7 3.8,-0.7c1.4,0 2.7,0.2 3.8,0.7c1.2,0.5 2.1,1.2 3,2.1c0.8,0.9 1.5,2 1.9,3.4c0.5,1.3 0.7,2.8 0.7,4.5c0,1.7 -0.2,3.2 -0.7,4.5c-0.5,1.3 -1.1,2.5 -1.9,3.4c-0.8,0.9 -1.8,1.6 -3,2.1c-1.1,0.4 -2.4,0.6 -3.8,0.6zm0,-4c1.4,0 2.5,-0.6 3.4,-1.8c0.8,-1.2 1.2,-2.9 1.2,-5c0,-2.1 -0.4,-3.7 -1.2,-4.9c-0.8,-1.2 -2,-1.7 -3.4,-1.7c-1.4,0 -2.5,0.6 -3.4,1.7c-0.8,1.2 -1.2,2.8 -1.2,4.9c0,2.1 0.4,3.8 1.2,5c0.9,1.2 2,1.8 3.4,1.8z" class="st1"/>
   <path fill="#494545" d="m51.19999,138.25c0,-1.7 0.3,-3.2 0.8,-4.6c0.5,-1.3 1.2,-2.5 2.1,-3.4c0.9,-0.9 2,-1.6 3.1,-2.1c1.2,-0.5 2.5,-0.7 3.8,-0.7c1.3,0 2.5,0.3 3.5,0.8c1,0.5 1.9,1.2 2.6,1.9l-2.6,2.9c-0.5,-0.5 -1.1,-0.9 -1.6,-1.1c-0.5,-0.3 -1.2,-0.4 -1.9,-0.4c-0.7,0 -1.4,0.2 -2,0.5c-0.6,0.3 -1.2,0.7 -1.6,1.3c-0.5,0.6 -0.8,1.3 -1.1,2.1c-0.3,0.8 -0.4,1.8 -0.4,2.8c0,2.1 0.5,3.8 1.4,5c0.9,1.2 2.1,1.8 3.7,1.8c0.8,0 1.6,-0.2 2.2,-0.5c0.6,-0.3 1.2,-0.8 1.7,-1.3l2.6,2.8c-0.9,1 -1.9,1.8 -3,2.3c-1.1,0.5 -2.3,0.8 -3.6,0.8c-1.3,0 -2.6,-0.2 -3.8,-0.7c-1.2,-0.5 -2.2,-1.1 -3.1,-2s-1.6,-2 -2.1,-3.3c-0.5,-1.6 -0.7,-3.2 -0.7,-4.9z" class="st1"/>
   <path fill="#494545" d="m69.09999,144.15c0,-1.7 0.7,-2.9 2.1,-3.9c1.4,-0.9 3.7,-1.6 6.8,-1.9c0,-0.7 -0.3,-1.3 -0.6,-1.7c-0.4,-0.4 -1,-0.6 -1.8,-0.6c-0.7,0 -1.4,0.1 -2,0.4c-0.7,0.3 -1.4,0.6 -2.2,1l-1.7,-3.1c1,-0.6 2.1,-1.1 3.2,-1.5c1.1,-0.4 2.3,-0.6 3.5,-0.6c2,0 3.6,0.6 4.7,1.7c1.1,1.2 1.6,3 1.6,5.4l0,9l-3.8,0l-0.4,-1.6l-0.1,0c-0.7,0.6 -1.4,1.1 -2.1,1.4c-0.8,0.4 -1.6,0.6 -2.5,0.6c-0.7,0 -1.4,-0.1 -1.9,-0.4c-0.6,-0.2 -1.1,-0.6 -1.5,-1c-0.4,-0.4 -0.7,-0.9 -0.9,-1.5c-0.3,-0.4 -0.4,-1.1 -0.4,-1.7zm4.4,-0.4c0,0.5 0.2,0.9 0.5,1.1c0.3,0.2 0.8,0.4 1.3,0.4c0.6,0 1,-0.1 1.4,-0.3c0.4,-0.2 0.8,-0.6 1.2,-1l0,-2.8c-1.7,0.2 -2.8,0.6 -3.5,1c-0.5,0.5 -0.9,1 -0.9,1.6z" class="st1"/>
   <path fill="#494545" d="m85.39999,133.05l3.8,0l0.3,2l0.1,0c0.7,-0.7 1.4,-1.2 2.1,-1.7c0.7,-0.5 1.6,-0.7 2.7,-0.7c1.1,0 2,0.2 2.7,0.7c0.7,0.5 1.2,1.1 1.6,2c0.7,-0.7 1.4,-1.3 2.2,-1.9c0.8,-0.5 1.7,-0.8 2.8,-0.8c1.7,0 2.9,0.6 3.7,1.7c0.8,1.1 1.2,2.7 1.2,4.7l0,9.8l-4.6,0l0,-9.2c0,-1.1 -0.2,-1.9 -0.5,-2.4c-0.3,-0.4 -0.8,-0.6 -1.5,-0.6c-0.8,0 -1.7,0.5 -2.7,1.5l0,10.7l-4.7,0l0,-9.2c0,-1.1 -0.2,-1.9 -0.5,-2.4c-0.3,-0.4 -0.8,-0.6 -1.5,-0.6c-0.8,0 -1.7,0.5 -2.7,1.5l0,10.7l-4.7,0l0,-15.8l0.2,0z" class="st1"/>
   <g>
    <path fill="#494545" d="m111.39999,126.15l4.7,0l0,17.6c0,0.5 0.1,0.8 0.3,1c0.2,0.2 0.4,0.3 0.6,0.3c0.1,0 0.2,0 0.3,0c0.1,0 0.2,0 0.3,-0.1l0.6,3.5c-0.3,0.1 -0.6,0.2 -1,0.3c-0.4,0.1 -0.9,0.1 -1.4,0.1c-0.8,0 -1.5,-0.1 -2,-0.4c-0.6,-0.3 -1,-0.6 -1.3,-1.1c-0.3,-0.5 -0.6,-1 -0.7,-1.7c-0.1,-0.6 -0.2,-1.4 -0.2,-2.2l-0.2,-17.3l0,0z" class="st1"/>
   </g>
  </g>
 </g>
 <defs>
  <linearGradient gradientTransform="matrix(1,0,0,-1,762,165.22998237609863)" y2="80.3999" x2="-686.854" y1="80.5562" x1="-686.854" gradientUnits="userSpaceOnUse" id="svg_5">
   <stop stop-color="#F29104" offset="0"/>
   <stop stop-color="#EC6813" offset="1"/>
  </linearGradient>
  <linearGradient gradientTransform="matrix(1,0,0,-1,762,165.22998237609863)" y2="40.6105" x2="-705.428" y1="79.4728" x1="-705.428" gradientUnits="userSpaceOnUse" id="svg_4">
   <stop stop-color="#F29104" offset="0"/>
   <stop stop-color="#EC6813" offset="1"/>
  </linearGradient>
  <linearGradient gradientTransform="matrix(1,0,0,-1,762,165.22998237609863)" y2="40.6383" x2="-686.9771" y1="164.3948" x1="-686.9772" gradientUnits="userSpaceOnUse" id="svg_3">
   <stop stop-color="#F29104" offset="0"/>
   <stop stop-color="#EC6813" offset="1"/>
  </linearGradient>
  <linearGradient gradientTransform="matrix(1,0,0,-1,762,165.22998237609863)" y2="41.4928" x2="-738.3776" y1="85.364" x1="-738.3776" gradientUnits="userSpaceOnUse" id="svg_2">
   <stop stop-color="#F29104" offset="0"/>
   <stop stop-color="#EC6813" offset="1"/>
  </linearGradient>
 </defs>
</svg>