<svg width="980" height="634" xmlns="http://www.w3.org/2000/svg">
 <g id="Layer_1">
  <title>Layer 1</title>
  <g>
   <metadata>Svg Vector Icons : http://www.onlinewebfonts.com/icon</metadata>
   <g>
    <g transform="translate(0 511) scale(0.1 -0.1)">
     <path d="m3450.14995,5053.10009l-56.2,-53.9l0,-1393.6l0,-1393.6l58.4,-45c58.4,-47.2 78.7,-47.2 1452,-47.2l1391.3,0l53.9,56.2l56.4,54l0,1359.9c0,948.5 -6.7,1375.6 -24.7,1413.8c-13.5,31.5 -49.5,67.4 -80.9,80.9c-38.2,18 -467.5,24.7 -1425,24.7l-1371.2,0l-54,-56.2zm2596.1,-1438.6l0,-1135.1l-1146.3,0l-1146.3,0l0,1135.1l0,1135.1l1146.3,0l1146.3,0l0,-1135.1z"/>
     <path d="m4522.34995,3742.70009c-303.4,-292.2 -343.9,-339.4 -341.7,-402.3c0,-51.7 20.2,-87.7 71.9,-130.4c114.6,-96.6 143.8,-80.9 492.2,254l146.1,141.6l227,-213.5c123.6,-114.6 247.2,-218 274.2,-227c107.9,-33.7 247.2,103.4 220.3,218c-15.7,60.7 -676.6,692.3 -721.5,692.3c-13.4,-0.1 -179.7,-150.7 -368.5,-332.7z"/>
     <path d="m114.54995,1735.50009c-116.9,-47.2 -112.3,-2.3 -114.6,-1476.8l0,-1377.8l56.2,-54l53.9,-56.2l1402.6,0l1402.6,0l47.2,51.7l49.5,51.7l0,1382.3l0,1384.6l-58.4,53.9l-58.4,54l-1362.1,4.5c-845.3,2.3 -1384.8,-4.5 -1418.5,-17.9zm2537.7,-1470l0,-1135.1l-1146.3,0l-1146.4,0l0,1135.1l0,1135.1l1146.4,0l1146.3,0l0,-1135.1z"/>
     <path d="m1384.54995,602.60009c-179.8,-188.8 -328.2,-352.9 -328.2,-361.9c0,-13.5 105.6,-128.1 597.9,-654.1c87.7,-92.1 186.6,-101.2 267.5,-18c103.4,101.1 80.9,164.1 -157.3,424.8c-116.9,128.1 -213.5,242.7 -213.5,254s36,56.2 80.9,98.9c170.8,161.8 346.1,382.1 346.1,433.8c0,92.1 -80.9,170.8 -179.8,170.8c-81,0.1 -101.2,-15.6 -413.6,-348.3z"/>
     <path d="m3515.34995,1737.70009c-125.9,-49.4 -121.4,-6.7 -121.4,-1490.2l0,-1366.6l56.2,-54l53.9,-56.2l1402.6,0l1402.6,0l47.2,51.7l49.5,51.7l0,1384.6c0,1328.4 -2.2,1386.8 -42.7,1436.3l-42.7,54l-1380.1,4.5c-757.5,2.2 -1400.4,-4.6 -1425.1,-15.8zm2530.9,-1472.2l0,-1135.1l-1146.3,0l-1146.3,0l0,1135.1l0,1135.1l1146.3,0l1146.3,0l0,-1135.1z"/>
     <path d="m4236.84995,647.60009c-116.9,-114.6 -78.7,-182.1 337.2,-595.6l325.9,-326l359.6,361.9c328.2,328.2 359.6,366.4 359.6,438.3c0,103.4 -76.4,177.6 -179.8,177.6c-62.9,0 -105.6,-31.5 -305.7,-229.3l-233.7,-229.3l-233.8,229.3c-195.6,193.3 -242.8,229.3 -303.4,229.3c-47.2,0 -92.2,-20.3 -125.9,-56.2z"/>
     <path d="m6873.44995,1735.50009c-35.9,-13.5 -69.7,-49.5 -83.2,-92.2c-33.7,-94.4 -33.7,-2665.8 -2.2,-2751.2c47.2,-123.6 -9,-119.1 1501.5,-121.4l1400.3,0l54,56.2l56.2,54l0,1371.1l0,1371.1l-54,62.9l-53.9,62.9l-1380.2,4.5c-863.1,2.3 -1400.3,-4.5 -1438.5,-17.9zm2562.4,-1474.5l4.5,-1130.6l-1157.6,0l-1157.6,0l0,1119.4c0,615.9 6.7,1128.3 15.7,1135.1c6.7,9 525.9,13.5 1150.8,11.2l1137.3,-6.7l6.9,-1128.4z"/>
     <path d="m7871.44995,899.30009c-92.2,-98.9 -67.4,-175.3 114.6,-370.9c87.7,-94.4 186.6,-200.1 215.8,-233.8l53.9,-60.7l-209,-220.3c-114.6,-121.4 -215.8,-242.7 -227,-272c-42.7,-112.4 89.9,-251.7 209,-222.5c36,9 186.6,152.8 388.8,366.4l328.2,350.7l-83.2,92.1c-47.2,51.7 -195.6,213.5 -332.7,359.6c-227,242.7 -251.7,263 -328.2,263c-56.1,0.1 -96.5,-15.6 -130.2,-51.6z"/>
    </g>
   </g>
  </g>
 </g>

</svg>